<?xml version="1.0" encoding="iso-8859-1"?>
<!-- Generator: Adobe Illustrator 21.1.0, SVG Export Plug-In . SVG Version: 6.00 Build 0)  -->
<svg version="1.1" id="Layer_1" xmlns="http://www.w3.org/2000/svg" xmlns:xlink="http://www.w3.org/1999/xlink" x="0px" y="0px"
	 viewBox="0 0 100.25 100.25" style="enable-background:new 0 0 100.25 100.25;" xml:space="preserve">
<g>
	<path d="M49.5,7.5c-23.71,0-43,19.29-43,43s19.29,43,43,43s43-19.29,43-43S73.21,7.5,49.5,7.5z M49.5,90.5
		c-22.056,0-40-17.944-40-40s17.944-40,40-40s40,17.944,40,40S71.556,90.5,49.5,90.5z"/>
	<path d="M65,33.5H34c-0.829,0-1.5,0.672-1.5,1.5v31c0,0.828,0.671,1.5,1.5,1.5h31c0.829,0,1.5-0.672,1.5-1.5V35
		C66.5,34.172,65.829,33.5,65,33.5z M63.5,64.5h-28v-28h28V64.5z"/>
</g>
</svg>
