<?xml version="1.0" encoding="iso-8859-1"?>
<!-- Generator: Adobe Illustrator 22.0.1, SVG Export Plug-In . SVG Version: 6.00 Build 0)  -->
<svg version="1.1" id="Layer_1" xmlns="http://www.w3.org/2000/svg" xmlns:xlink="http://www.w3.org/1999/xlink" x="0px" y="0px"
	 viewBox="0 0 100.25 100.25" style="enable-background:new 0 0 100.25 100.25;" xml:space="preserve">
<g>
	<path d="M57.74,54.764c-0.901-0.179-1.789-0.325-2.307-0.392c-1.777-0.252-3.591-0.391-5.437-0.391
		c-1.586,0-3.146,0.108-4.682,0.295c-0.841,0.099-1.593,0.228-2.078,0.312C25.223,57.795,11.5,73.562,11.5,92.484
		c0,0.828,0.671,1.5,1.5,1.5h74c0.829,0,1.5-0.672,1.5-1.5C88.5,73.906,75.272,58.358,57.74,54.764z M54.932,57.33v7.654h-9v-7.762
		c1.335-0.153,2.689-0.241,4.064-0.241C51.672,56.982,53.318,57.105,54.932,57.33z M51.879,67.985l3.318,23H44.688l3.318-23H51.879z
		 M42.932,57.69v8.794c0,0.828,0.671,1.5,1.5,1.5h0.543l-3.318,23H14.531C15.221,74.497,27.207,60.88,42.932,57.69z M58.229,90.985
		l-3.318-23h1.521c0.829,0,1.5-0.672,1.5-1.5v-8.598c15.297,3.508,26.86,16.917,27.537,33.098H58.229z"/>
	<path d="M49.35,49.71c12.192,0,22.112-9.916,22.112-22.104c0-12.189-9.919-22.105-22.112-22.105
		c-12.189,0-22.105,9.916-22.105,22.105C27.245,39.794,37.161,49.71,49.35,49.71z M49.35,8.5c10.538,0,19.112,8.57,19.112,19.105
		c0,10.534-8.574,19.104-19.112,19.104c-10.535,0-19.105-8.57-19.105-19.104S38.815,8.5,49.35,8.5z"/>
	<path d="M44.582,29.985c1.727,0,3.137-1.319,3.315-3h3.071c0.178,1.681,1.587,3,3.315,3h7.3c1.847,0,3.35-1.503,3.35-3.351v-3.3
		c0-1.847-1.503-3.35-3.35-3.35h-7.3c-1.847,0-3.35,1.503-3.35,3.35v0.65h-3v-0.65c0-1.847-1.503-3.35-3.35-3.35h-7.3
		c-1.847,0-3.35,1.503-3.35,3.35v3.3c0,1.848,1.503,3.351,3.35,3.351H44.582z M53.932,23.334c0-0.192,0.157-0.35,0.35-0.35h7.3
		c0.193,0,0.35,0.157,0.35,0.35v3.3c0,0.193-0.157,0.351-0.35,0.351h-7.3c-0.193,0-0.35-0.157-0.35-0.351V23.334z M36.932,26.634
		v-3.3c0-0.192,0.157-0.35,0.35-0.35h7.3c0.193,0,0.35,0.157,0.35,0.35v3.3c0,0.193-0.157,0.351-0.35,0.351h-7.3
		C37.089,26.985,36.932,26.828,36.932,26.634z"/>
</g>
</svg>
