<?xml version="1.0" encoding="iso-8859-1"?>
<!-- Generator: Adobe Illustrator 21.1.0, SVG Export Plug-In . SVG Version: 6.00 Build 0)  -->
<svg version="1.1" id="Layer_1" xmlns="http://www.w3.org/2000/svg" xmlns:xlink="http://www.w3.org/1999/xlink" x="0px" y="0px"
	 viewBox="0 0 100.752 100.748" style="enable-background:new 0 0 100.752 100.748;" xml:space="preserve">
<g>
	<path d="M26.831,41.646c0,2.772,2.255,5.028,5.028,5.028s5.028-2.256,5.028-5.028s-2.256-5.028-5.028-5.028
		S26.831,38.874,26.831,41.646z M33.981,41.646c0,1.17-0.952,2.122-2.122,2.122s-2.122-0.952-2.122-2.122s0.952-2.122,2.122-2.122
		S33.981,40.476,33.981,41.646z"/>
	<path d="M76.427,26.049c-0.705-0.382-1.587-0.125-1.972,0.579s-0.125,1.587,0.579,1.972c9.984,5.449,15.944,14.242,15.944,23.521
		c0,8.55-3.417,14.863-11.079,20.47c-0.284,0.209-0.483,0.514-0.561,0.857L76.474,86.35h-5.361l-1.707-6.575
		c-0.104-0.397-0.37-0.733-0.734-0.923s-0.794-0.216-1.178-0.074c-4.756,1.767-8.36,2.334-14.835,2.334
		c-6.147,0-10.541-0.432-16.143-2.708c-0.393-0.161-0.836-0.141-1.212,0.054c-0.377,0.194-0.65,0.544-0.748,0.956l-1.648,6.937
		h-5.314l-2.822-13.919c-0.076-0.374-0.296-0.703-0.612-0.916C12.062,63.366,5.929,56.334,5.929,50.614v-5.487
		c0-2.355,1.667-4.271,3.715-4.271h6.453l0.126-0.001c0.057-0.001,0.109-0.004,0.165,0.001c0.555,0.051,1.097-0.218,1.385-0.7
		c2.09-3.49,5.119-6.635,9.002-9.347c0.389-0.272,0.621-0.717,0.621-1.191V17.537c5.183,0.541,8.835,3.921,10.238,7.274
		c0.309,0.74,1.161,1.089,1.901,0.78c0.74-0.31,1.09-1.161,0.78-1.901c-1.901-4.546-7.082-9.134-14.372-9.134
		c-0.803,0-1.453,0.65-1.453,1.453v12.86c-3.668,2.663-6.613,5.712-8.769,9.081H9.644c-3.651,0-6.621,3.22-6.621,7.177v5.487
		c0,9.841,13.759,19.425,19.018,22.978l2.94,14.5c0.137,0.677,0.732,1.164,1.424,1.164h7.651c0.673,0,1.258-0.462,1.414-1.117
		l1.529-6.437c5.311,1.929,9.722,2.315,15.66,2.315c5.476,0,9.365-0.322,14.332-1.98l1.592,6.131
		c0.166,0.641,0.744,1.088,1.406,1.088h7.651c0.681,0,1.271-0.474,1.419-1.138l3-13.51c8.064-6.057,11.826-13.216,11.826-22.487
		C93.885,41.761,87.358,32.015,76.427,26.049z"/>
	<path d="M47.67,30.172c0.44,0.024,0.85-0.153,1.14-0.473c1.972-2.163,5.134-3.454,8.457-3.454c3.296,0,6.356,1.287,8.396,3.531
		c0.275,0.304,0.667,0.476,1.075,0.476c0.02,0,0.039,0,0.059-0.001c0.43-0.017,0.83-0.224,1.093-0.565
		c1.818-2.36,2.778-5.186,2.777-8.171c0-7.389-6.012-13.4-13.4-13.4s-13.4,6.011-13.4,13.4c0,2.945,0.938,5.741,2.712,8.083
		C46.839,29.941,47.239,30.152,47.67,30.172z M57.267,11.02c5.786,0,10.494,4.708,10.494,10.495
		c0.001,1.788-0.438,3.502-1.281,5.035c-2.491-2.058-5.756-3.211-9.212-3.211c-3.505,0-6.784,1.124-9.255,3.13
		c-0.814-1.514-1.239-3.2-1.239-4.955C46.773,15.728,51.48,11.02,57.267,11.02z"/>
</g>
</svg>
