<svg id="Layer_1" data-name="Layer 1" xmlns="http://www.w3.org/2000/svg" viewBox="0 0 101 101"><title>Artboard 2</title><path d="M91.5,23H9.5A1.5,1.5,0,0,0,8,24.5v52A1.5,1.5,0,0,0,9.5,78h82A1.5,1.5,0,0,0,93,76.5v-52A1.5,1.5,0,0,0,91.5,23ZM90,75H11V26H90Z"/><path d="M18,70H47a1.5,1.5,0,0,0,1.5-1.5A15.77,15.77,0,0,0,32.5,53a15.77,15.77,0,0,0-16,15.5A1.5,1.5,0,0,0,18,70ZM32.5,56A12.85,12.85,0,0,1,45.41,67H19.59A12.85,12.85,0,0,1,32.5,56Z"/><path d="M32.5,50A8.5,8.5,0,1,0,24,41.5,8.51,8.51,0,0,0,32.5,50Zm0-14A5.5,5.5,0,1,1,27,41.5,5.51,5.51,0,0,1,32.5,36Z"/><path d="M51.5,42h30a1.5,1.5,0,0,0,0-3h-30a1.5,1.5,0,0,0,0,3Z"/><path d="M51.5,56h30a1.5,1.5,0,0,0,0-3h-30a1.5,1.5,0,0,0,0,3Z"/></svg>