<?xml version="1.0" encoding="utf-8"?>
<!-- Generator: Adobe Illustrator 21.0.0, SVG Export Plug-In . SVG Version: 6.00 Build 0)  -->
<svg version="1.1" id="Layer_1" xmlns="http://www.w3.org/2000/svg" xmlns:xlink="http://www.w3.org/1999/xlink" x="0px" y="0px"
	 viewBox="0 0 100.4 100.4" style="enable-background:new 0 0 100.4 100.4;" xml:space="preserve">
<g>
	<path d="M50,96.4C24.4,96.4,3.6,75.6,3.6,50C3.6,24.4,24.4,3.6,50,3.6S96.4,24.4,96.4,50C96.4,75.6,75.6,96.4,50,96.4z M50,6.6
		C26.1,6.6,6.6,26.1,6.6,50c0,23.9,19.5,43.4,43.4,43.4S93.4,73.9,93.4,50C93.4,26.1,73.9,6.6,50,6.6z"/>
	<path d="M32.6,64.2c-4.8,0-8.6-5.6-8.6-12.8s3.8-12.8,8.6-12.8c4.8,0,8.6,5.6,8.6,12.8S37.5,64.2,32.6,64.2z M32.6,41.6
		c-3,0-5.6,4.5-5.6,9.8s2.6,9.8,5.6,9.8c3,0,5.6-4.5,5.6-9.8S35.7,41.6,32.6,41.6z"/>
	<path d="M51.2,64.2c-4.8,0-8.6-5.6-8.6-12.8s3.8-12.8,8.6-12.8c4.8,0,8.6,5.6,8.6,12.8S56,64.2,51.2,64.2z M51.2,41.6
		c-3,0-5.6,4.5-5.6,9.8s2.6,9.8,5.6,9.8c3,0,5.6-4.5,5.6-9.8S54.3,41.6,51.2,41.6z"/>
	<path d="M21.1,64.2c-0.8,0-1.5-0.7-1.5-1.5v-19l-3.5,2.7c-0.7,0.5-1.6,0.4-2.1-0.3c-0.5-0.7-0.4-1.6,0.3-2.1l5.9-4.6
		c0.5-0.4,1.1-0.4,1.6-0.2c0.5,0.3,0.8,0.8,0.8,1.3v22.1C22.6,63.5,21.9,64.2,21.1,64.2z"/>
	<path d="M66.8,64c-0.3,0-0.6-0.1-0.8-0.3c-0.7-0.5-0.9-1.4-0.4-2.1l14.6-21.7c0.5-0.7,1.4-0.9,2.1-0.4c0.7,0.5,0.9,1.4,0.4,2.1
		L68,63.3C67.7,63.8,67.2,64,66.8,64z"/>
	<path d="M68.5,50.4c-3.3,0-6.1-2.7-6.1-6.1c0-3.3,2.7-6.1,6.1-6.1c3.3,0,6.1,2.7,6.1,6.1C74.6,47.7,71.8,50.4,68.5,50.4z
		 M68.5,41.3c-1.7,0-3.1,1.4-3.1,3.1c0,1.7,1.4,3.1,3.1,3.1c1.7,0,3.1-1.4,3.1-3.1C71.6,42.7,70.2,41.3,68.5,41.3z"/>
	<path d="M81.2,62.9c-3.3,0-6.1-2.7-6.1-6.1c0-3.3,2.7-6.1,6.1-6.1c3.3,0,6.1,2.7,6.1,6.1C87.3,60.2,84.6,62.9,81.2,62.9z
		 M81.2,53.8c-1.7,0-3.1,1.4-3.1,3.1c0,1.7,1.4,3.1,3.1,3.1c1.7,0,3.1-1.4,3.1-3.1C84.3,55.1,82.9,53.8,81.2,53.8z"/>
</g>
</svg>
