<svg id="Layer_1" data-name="Layer 1" xmlns="http://www.w3.org/2000/svg" viewBox="0 0 101 101"><path d="M67,50.5A1.5,1.5,0,0,0,65.5,49H52V28.5a1.5,1.5,0,0,0-3,0v22A1.5,1.5,0,0,0,50.5,52h15A1.5,1.5,0,0,0,67,50.5Z"/><path d="M15.27,44.31a1.51,1.51,0,0,0,.65-.15L28.54,38a1.5,1.5,0,0,0-1.31-2.69L17.64,40a34.51,34.51,0,0,1,65.81.26h0A33.88,33.88,0,0,1,84.38,44a1.51,1.51,0,0,0,1.47,1.21l.29,0a1.52,1.52,0,0,0,1.19-1.76,35.81,35.81,0,0,0-1-4h0A37.32,37.32,0,0,0,50.5,13,37.7,37.7,0,0,0,14.91,38.66l-4.45-9.12a1.5,1.5,0,1,0-2.69,1.31l6.15,12.62A1.5,1.5,0,0,0,15.27,44.31Z"/><path d="M93.39,71,87.23,58.34a1.5,1.5,0,0,0-2-.69L72.61,63.8a1.5,1.5,0,0,0,1.32,2.7L83,62.07A34.5,34.5,0,0,1,16.6,57a1.5,1.5,0,1,0-3,.56A37.51,37.51,0,0,0,86,62.64l4.7,9.63a1.49,1.49,0,0,0,1.35.85,1.39,1.39,0,0,0,.65-.16A1.5,1.5,0,0,0,93.39,71Z"/><path d="M49,72.5v7a1.5,1.5,0,0,0,3,0v-7a1.5,1.5,0,0,0-3,0Z"/><path d="M33.91,64.46l-4.95,5a1.51,1.51,0,0,0,2.13,2.13l4.95-5a1.51,1.51,0,0,0-2.13-2.13Z"/></svg>