<?xml version="1.0" encoding="iso-8859-1"?>
<!-- Generator: Adobe Illustrator 21.1.0, SVG Export Plug-In . SVG Version: 6.00 Build 0)  -->
<svg version="1.1" id="Layer_1" xmlns="http://www.w3.org/2000/svg" xmlns:xlink="http://www.w3.org/1999/xlink" x="0px" y="0px"
	 viewBox="0 0 100.5 100.5" style="enable-background:new 0 0 100.5 100.5;" xml:space="preserve">
<path d="M51.508,48.562V16.637c10.438,0.611,18.7,7.509,18.7,15.92c0,0.829,0.672,1.5,1.5,1.5s1.5-0.671,1.5-1.5
	c0-10.053-9.605-18.301-21.7-18.936V8.265c0-0.829-0.671-1.5-1.5-1.5s-1.5,0.671-1.5,1.5v5.356
	c-12.103,0.635-21.714,8.883-21.714,18.936c0,10.042,9.611,18.282,21.714,18.916v31.935C38.063,82.802,29.793,75.9,29.793,67.483
	c0-0.828-0.671-1.5-1.5-1.5s-1.5,0.672-1.5,1.5c0,10.059,9.612,18.311,21.715,18.941v6.312c0,0.828,0.671,1.5,1.5,1.5
	s1.5-0.672,1.5-1.5v-6.313c12.096-0.64,21.7-8.888,21.7-18.94C73.208,57.441,63.605,49.201,51.508,48.562z M29.794,32.557
	c0-8.411,8.268-15.309,18.714-15.92v31.82C38.062,47.847,29.794,40.957,29.794,32.557z M51.508,83.407v-31.83
	c10.439,0.615,18.7,7.506,18.7,15.906C70.208,75.893,61.947,82.791,51.508,83.407z"/>
</svg>
