<?xml version="1.0" encoding="iso-8859-1"?>
<!-- Generator: Adobe Illustrator 21.0.0, SVG Export Plug-In . SVG Version: 6.00 Build 0)  -->
<svg version="1.1" id="Layer_1" xmlns="http://www.w3.org/2000/svg" xmlns:xlink="http://www.w3.org/1999/xlink" x="0px" y="0px"
	 viewBox="0 0 100.353 100.352" style="enable-background:new 0 0 100.353 100.352;" xml:space="preserve">
<g>
	<path d="M49.936,52.438c-12.864,0-23.33,10.466-23.33,23.329v1.456h46.659v-1.456C73.265,62.904,62.799,52.438,49.936,52.438z
		 M29.568,74.312c0.749-10.582,9.598-18.963,20.367-18.963c10.769,0,19.618,8.38,20.367,18.963H29.568z"/>
	<path d="M49.552,50.052c7.521,0,13.639-6.119,13.639-13.639c0-7.52-6.119-13.637-13.639-13.637
		c-7.519,0-13.636,6.118-13.636,13.637C35.917,43.933,42.034,50.052,49.552,50.052z M49.552,25.687
		c5.915,0,10.728,4.812,10.728,10.726c0,5.915-4.813,10.728-10.728,10.728c-5.914,0-10.725-4.813-10.725-10.728
		C38.828,30.499,43.638,25.687,49.552,25.687z"/>
	<path d="M18.744,60.962c2.642,0,5.237,0.705,7.505,2.039l1.476-2.509c-2.715-1.597-5.821-2.441-8.981-2.441
		c-9.769,0-17.716,7.947-17.716,17.717v1.456h21.677v-2.911H4.01C4.743,66.828,11.072,60.962,18.744,60.962z"/>
	<path d="M18.461,55.224c5.797,0,10.513-4.715,10.513-10.511c0-5.797-4.716-10.513-10.513-10.513
		c-5.795,0-10.509,4.716-10.509,10.513C7.951,50.509,12.666,55.224,18.461,55.224z M18.461,37.111c4.192,0,7.602,3.41,7.602,7.602
		c0,4.191-3.41,7.6-7.602,7.6c-4.19,0-7.598-3.409-7.598-7.6C10.862,40.521,14.271,37.111,18.461,37.111z"/>
	<path d="M81.256,58.051c-3.16,0-6.266,0.844-8.981,2.441l1.475,2.509c2.268-1.334,4.863-2.039,7.505-2.039
		c7.673,0,14.001,5.867,14.734,13.35H77.298v2.911h21.673v-1.456C98.972,65.998,91.025,58.051,81.256,58.051z"/>
	<path d="M81.54,55.224c5.797,0,10.513-4.715,10.513-10.511c0-5.797-4.716-10.513-10.513-10.513
		c-5.795,0-10.509,4.716-10.509,10.513C71.031,50.509,75.745,55.224,81.54,55.224z M81.54,37.111c4.192,0,7.602,3.41,7.602,7.602
		c0,4.191-3.41,7.6-7.602,7.6c-4.19,0-7.598-3.409-7.598-7.6C73.942,40.521,77.35,37.111,81.54,37.111z"/>
</g>
</svg>
