<?xml version="1.0" encoding="utf-8"?>
<!-- Generator: Adobe Illustrator 19.2.1, SVG Export Plug-In . SVG Version: 6.00 Build 0)  -->
<svg version="1.1" id="Layer_1" xmlns="http://www.w3.org/2000/svg" xmlns:xlink="http://www.w3.org/1999/xlink" x="0px" y="0px"
	 viewBox="0 0 100 100" style="enable-background:new 0 0 100 100;" xml:space="preserve">
<style type="text/css">
	.st0{fill:#E2E2E2;}
	.st1{display:none;}
	.st2{display:inline;fill:none;stroke:#231F20;stroke-width:2;stroke-miterlimit:10;}
	.st3{display:inline;}
	.st4{fill:none;stroke:#231F20;stroke-width:2;stroke-miterlimit:10;}
	.st5{fill:none;stroke:#000000;stroke-width:2;stroke-miterlimit:10;}
	.st6{display:inline;fill:none;stroke:#000000;stroke-width:2;stroke-miterlimit:10;}
</style>
<circle class="st0" cx="50" cy="50.2" r="50"/>
<g class="st1">
	<path class="st2" d="M63.9,71.7c0-6.6-4.6-12.1-10.8-13.4v-3.4c2.3-1.1,3.9-3.4,3.9-6.2c0-0.6,0-2.8,0-3.4c0-3.8-3.1-6.8-6.8-6.8
		c-3.8,0-6.8,3.1-6.8,6.8c0,0.6,0,2.8,0,3.4c0,2.7,1.6,5,3.8,6.1v3.5c-6.1,1.4-10.7,6.8-10.7,13.4H63.9z"/>
	<path class="st2" d="M57.1,43.3c1-0.6,2.1-1.1,3.2-1.3v-2.6c-1.7-0.8-2.9-2.6-2.9-4.6c0-0.4,0-2.1,0-2.6c0-2.9,2.3-5.2,5.2-5.2
		c2.9,0,5.2,2.3,5.2,5.2c0,0.4,0,2.1,0,2.6c0,2.1-1.2,3.8-3,4.7V42c4.7,1,8.2,5.1,8.2,10.1H56.2"/>
	<path class="st2" d="M43.7,43.3c-1-0.6-2.1-1.1-3.2-1.3v-2.6c1.7-0.8,3-2.6,3-4.7c0-0.4,0-2.1,0-2.6c0-2.9-2.3-5.2-5.2-5.2
		c-2.8,0-5.2,2.3-5.2,5.2c0,0.4,0,2.1,0,2.6c0,2,1.2,3.8,2.9,4.6V42c-4.6,1-8.1,5.2-8.1,10.1h15.8"/>
</g>
<g class="st1">
	<g class="st3">
		<polygon class="st4" points="72.8,29.4 43.7,29.4 43.7,52.5 50.4,52.5 50.4,59.1 57.1,52.5 72.8,52.5 		"/>
		<polyline class="st4" points="43.7,42.1 29.8,42.1 29.8,65.2 37.1,65.2 43.8,72.3 43.8,65.2 60.3,65.2 60.3,52.8 		"/>
	</g>
	<ellipse transform="matrix(1 -3.690704e-003 3.690704e-003 1 -0.1308 0.1885)" class="st2" cx="51" cy="35.5" rx="1.7" ry="1.7"/>
	
		<ellipse transform="matrix(1 -3.690704e-003 3.690704e-003 1 -0.1307 0.2173)" class="st2" cx="58.8" cy="35.5" rx="1.7" ry="1.7"/>
</g>
<g class="st1">
	<polyline class="st2" points="25.8,32.3 31.3,32.3 40.5,63.1 64.6,63.1 68.5,37.6 32.9,37.6 	"/>
	<ellipse class="st2" cx="43.6" cy="69.9" rx="3.1" ry="3.1"/>
	<circle class="st2" cx="61.1" cy="70.1" r="3.1"/>
	<line class="st2" x1="38.9" y1="57.8" x2="41.7" y2="67.2"/>
	<line class="st2" x1="47" y1="69.3" x2="58" y2="69.3"/>
</g>
<g>
	<g>
		<g>
			<rect x="23.2" y="44.2" class="st5" width="45.2" height="24.7"/>
		</g>
		<circle class="st5" cx="46" cy="56.5" r="7.7"/>
		<line class="st5" x1="27.9" y1="48.9" x2="27.9" y2="64.2"/>
		<line class="st5" x1="63.8" y1="48.9" x2="63.8" y2="64.2"/>
	</g>
	<g>
		<g>
			<polyline class="st5" points="28.7,44.2 28.7,38.2 73.9,38.2 73.9,62.9 68.4,62.9 			"/>
		</g>
	</g>
	<g>
		<g>
			<polyline class="st5" points="33.8,38.7 33.8,32.7 79,32.7 79,57.4 73.5,57.4 			"/>
		</g>
	</g>
</g>
<g class="st1">
	<g class="st3">
		<circle class="st5" cx="50.8" cy="49.4" r="20.2"/>
		<line class="st5" x1="50.4" y1="34.2" x2="50.4" y2="53.3"/>
		<line class="st5" x1="50.4" y1="53.3" x2="57" y2="46.7"/>
	</g>
	<circle class="st6" cx="50.8" cy="49.4" r="25.2"/>
</g>
</svg>
