<?xml version="1.0" encoding="UTF-8"?> <svg xmlns="http://www.w3.org/2000/svg" id="Capa_1" height="512" viewBox="0 0 512 512" width="512"> <g> <path d="m256.692 117.989c-.184-.009-.382-.018-.578-.034-17.099-1.482-28.94-6.993-38.434-17.911l-.172-.204c-1.71-2.057-3.841-3.089-6.236-3.067-2.427.022-4.503 1.089-6.173 3.172l-.152.187c-9.448 10.845-21.29 16.342-38.37 17.822-.213.019-.411.027-.595.036-8.201.412-9.393 6.568-9.524 9.186-2.164 42.018 13.8 72.751 50.27 96.741 1.44 1.004 3.019 1.506 4.602 1.506 1.59 0 3.185-.508 4.645-1.525 36.436-23.93 52.411-54.662 50.267-96.805-.165-2.602-1.422-8.695-9.55-9.104zm-45.354 90.929c-28.084-19.671-40.594-43.509-40.058-76.371 16.58-1.974 29.531-7.604 40.07-17.47 10.541 9.868 23.487 15.5 40.068 17.473.518 32.867-11.991 56.706-40.08 76.368z"></path> <path d="m371.213 97.45h-64.954c-4.143 0-7.5 3.357-7.5 7.5s3.357 7.5 7.5 7.5h64.954c4.143 0 7.5-3.357 7.5-7.5s-3.358-7.5-7.5-7.5z"></path> <path d="m371.213 133.847h-64.954c-4.143 0-7.5 3.357-7.5 7.5s3.357 7.5 7.5 7.5h64.954c4.143 0 7.5-3.357 7.5-7.5s-3.358-7.5-7.5-7.5z"></path> <path d="m371.213 170.242h-64.954c-4.143 0-7.5 3.357-7.5 7.5s3.357 7.5 7.5 7.5h64.954c4.143 0 7.5-3.357 7.5-7.5s-3.358-7.5-7.5-7.5z"></path> <path d="m440.856 219.473-13.11.02v-158.062c0-9.224-7.518-16.729-16.759-16.729h-3.604v-26.416c0-10.083-8.217-18.286-18.317-18.286h-307.955c-10.1 0-18.316 8.203-18.316 18.286v262.789c-14.221 1.663-25.295 13.778-25.295 28.438v145.209c0 15.793 12.849 28.641 28.642 28.641h61.464c4.142 0 7.5-3.357 7.5-7.5s-3.358-7.5-7.5-7.5h-61.464c-7.522 0-13.642-6.119-13.642-13.641v-145.209c0-7.521 6.12-13.64 13.642-13.64h181.508c15.432 0 34.602-.001 38.372-22.148l9.592-28.973c3.313-10.045 7.126-10.059 12.388-10.077l132.867-.202c10.273 0 18.632 8.356 18.632 18.629v201.62c0 7.521-6.119 13.641-13.642 13.641h-13.613v-75.56c0-15.554-12.654-28.207-28.209-28.207h-1.557v-19.726c0-19.163-15.579-34.754-34.728-34.754h-43.352c-19.164 0-34.756 15.591-34.756 34.754v19.726h-1.557c-15.555 0-28.209 12.653-28.209 28.207v75.56h-93.133c-4.142 0-7.5 3.357-7.5 7.5s3.358 7.5 7.5 7.5h93.133v.431c0 15.554 12.654 28.207 28.209 28.207h115.948c15.555 0 28.209-12.653 28.209-28.207v-.431h13.613c15.793 0 28.642-12.848 28.642-28.641v-201.62c.001-18.543-15.086-33.629-33.643-33.629zm-132.893.202c-9.838.035-20.691 2.483-26.592 20.37l-9.777 29.532c-.132.397-.229.806-.293 1.219-1.316 8.57-4.853 10.077-23.651 10.077h-123.129v-219.442c0-.937.805-1.729 1.759-1.729h75.481c4.142 0 7.5-3.357 7.5-7.5s-3.358-7.5-7.5-7.5h-75.481c-9.241 0-16.759 7.505-16.759 16.729v219.442h-31.726v-262.587c0-1.781 1.519-3.286 3.316-3.286h307.955c1.798 0 3.316 1.505 3.316 3.286v26.416h-155.375c-4.142 0-7.5 3.357-7.5 7.5s3.358 7.5 7.5 7.5h173.98c.953 0 1.759.792 1.759 1.729v158.085zm-3.318 125.195c0-10.893 8.862-19.754 19.756-19.754h43.352c10.878 0 19.728 8.861 19.728 19.754v19.726h-82.835v-19.726zm112.6 138.923c0 7.282-5.926 13.207-13.209 13.207h-115.948c-7.283 0-13.209-5.925-13.209-13.207v-90.99c0-7.282 5.926-13.207 13.209-13.207h115.948c7.283 0 13.209 5.925 13.209 13.207z"></path> <path d="m346.062 406.529c-14.171 0-25.699 11.541-25.699 25.727 0 11.562 7.676 21.362 18.199 24.579v15.797c0 4.143 3.357 7.5 7.5 7.5s7.5-3.357 7.5-7.5v-15.797c10.523-3.217 18.2-13.017 18.2-24.579 0-14.186-11.53-25.727-25.7-25.727zm0 36.425c-5.899 0-10.699-4.799-10.699-10.698 0-5.915 4.8-10.727 10.699-10.727 5.9 0 10.7 4.812 10.7 10.727 0 5.899-4.8 10.698-10.7 10.698z"></path> </g> </svg> 